<svg
  width="406"
  height="114"
  viewBox="0 0 406 114"
  fill="none"
  xmlns="http://www.w3.org/2000/svg"
>
  <g clip-path="url(#clip0_1_6)">
    <rect y="11" width="140" height="2" rx="1" fill="#181818" />
    <path
      d="M166.032 6.832L162.912 18H160.272L158.176 10.048L155.984 18L153.36 18.016L150.352 6.832H152.752L154.72 15.504L156.992 6.832H159.488L161.632 15.456L163.616 6.832H166.032ZM169.735 8.64V11.44H173.495V13.216H169.735V16.176H173.975V18H167.495V6.816H173.975V8.64H169.735ZM178.25 16.224H181.93V18H176.01V6.832H178.25V16.224ZM182.81 12.4C182.81 11.3013 183.055 10.32 183.546 9.456C184.047 8.58133 184.725 7.904 185.578 7.424C186.442 6.93333 187.407 6.688 188.474 6.688C189.722 6.688 190.815 7.008 191.754 7.648C192.693 8.288 193.349 9.17333 193.722 10.304H191.146C190.89 9.77067 190.527 9.37067 190.058 9.104C189.599 8.83733 189.066 8.704 188.458 8.704C187.807 8.704 187.226 8.85867 186.714 9.168C186.213 9.46667 185.818 9.89333 185.53 10.448C185.253 11.0027 185.114 11.6533 185.114 12.4C185.114 13.136 185.253 13.7867 185.53 14.352C185.818 14.9067 186.213 15.3387 186.714 15.648C187.226 15.9467 187.807 16.096 188.458 16.096C189.066 16.096 189.599 15.9627 190.058 15.696C190.527 15.4187 190.89 15.0133 191.146 14.48H193.722C193.349 15.6213 192.693 16.512 191.754 17.152C190.826 17.7813 189.733 18.096 188.474 18.096C187.407 18.096 186.442 17.856 185.578 17.376C184.725 16.8853 184.047 16.208 183.546 15.344C183.055 14.48 182.81 13.4987 182.81 12.4ZM200.819 18.112C199.774 18.112 198.814 17.8667 197.939 17.376C197.065 16.8853 196.371 16.208 195.859 15.344C195.347 14.4693 195.091 13.4827 195.091 12.384C195.091 11.296 195.347 10.32 195.859 9.456C196.371 8.58133 197.065 7.89867 197.939 7.408C198.814 6.91733 199.774 6.672 200.819 6.672C201.875 6.672 202.835 6.91733 203.699 7.408C204.574 7.89867 205.262 8.58133 205.763 9.456C206.275 10.32 206.531 11.296 206.531 12.384C206.531 13.4827 206.275 14.4693 205.763 15.344C205.262 16.208 204.574 16.8853 203.699 17.376C202.825 17.8667 201.865 18.112 200.819 18.112ZM200.819 16.112C201.491 16.112 202.083 15.9627 202.595 15.664C203.107 15.3547 203.507 14.9173 203.795 14.352C204.083 13.7867 204.227 13.1307 204.227 12.384C204.227 11.6373 204.083 10.9867 203.795 10.432C203.507 9.86667 203.107 9.43467 202.595 9.136C202.083 8.83733 201.491 8.688 200.819 8.688C200.147 8.688 199.55 8.83733 199.027 9.136C198.515 9.43467 198.115 9.86667 197.827 10.432C197.539 10.9867 197.395 11.6373 197.395 12.384C197.395 13.1307 197.539 13.7867 197.827 14.352C198.115 14.9173 198.515 15.3547 199.027 15.664C199.55 15.9627 200.147 16.112 200.819 16.112ZM220.374 6.832V18H218.134V10.736L215.142 18H213.446L210.438 10.736V18H208.198V6.832H210.742L214.294 15.136L217.846 6.832H220.374ZM224.828 8.64V11.44H228.588V13.216H224.828V16.176H229.068V18H222.588V6.816H229.068V8.64H224.828ZM242.517 6.832V8.64H239.541V18H237.301V8.64H234.325V6.832H242.517ZM249.335 18.112C248.29 18.112 247.33 17.8667 246.455 17.376C245.58 16.8853 244.887 16.208 244.375 15.344C243.863 14.4693 243.607 13.4827 243.607 12.384C243.607 11.296 243.863 10.32 244.375 9.456C244.887 8.58133 245.58 7.89867 246.455 7.408C247.33 6.91733 248.29 6.672 249.335 6.672C250.391 6.672 251.351 6.91733 252.215 7.408C253.09 7.89867 253.778 8.58133 254.279 9.456C254.791 10.32 255.047 11.296 255.047 12.384C255.047 13.4827 254.791 14.4693 254.279 15.344C253.778 16.208 253.09 16.8853 252.215 17.376C251.34 17.8667 250.38 18.112 249.335 18.112ZM249.335 16.112C250.007 16.112 250.599 15.9627 251.111 15.664C251.623 15.3547 252.023 14.9173 252.311 14.352C252.599 13.7867 252.743 13.1307 252.743 12.384C252.743 11.6373 252.599 10.9867 252.311 10.432C252.023 9.86667 251.623 9.43467 251.111 9.136C250.599 8.83733 250.007 8.688 249.335 8.688C248.663 8.688 248.066 8.83733 247.543 9.136C247.031 9.43467 246.631 9.86667 246.343 10.432C246.055 10.9867 245.911 11.6373 245.911 12.384C245.911 13.1307 246.055 13.7867 246.343 14.352C246.631 14.9173 247.031 15.3547 247.543 15.664C248.066 15.9627 248.663 16.112 249.335 16.112Z"
      fill="#181818"
    />
    <rect x="266" y="11" width="140" height="2" rx="1" fill="#181818" />
  </g>
  <path
    d="M3.35211 78C2.91211 77.52 2.57211 76.94 2.33211 76.26C2.09211 75.58 1.97211 74.88 1.97211 74.16C3.33211 74.16 4.29211 73.94 4.85211 73.5C5.41211 73.06 5.69211 72.28 5.69211 71.16V42.96C5.69211 41.84 5.41211 41.06 4.85211 40.62C4.29211 40.14 3.33211 39.9 1.97211 39.9C1.97211 39.18 2.09211 38.5 2.33211 37.86C2.57211 37.18 2.91211 36.6 3.35211 36.12H18.1721C19.0521 37.04 19.4921 38.3 19.4921 39.9C18.1321 39.9 17.1321 40.14 16.4921 40.62C15.8521 41.1 15.5321 41.88 15.5321 42.96V72.9H17.7521C20.6721 72.9 22.8321 71.94 24.2321 70.02C25.6721 68.1 26.3921 65.4 26.3921 61.92H30.5921C31.2721 62.44 31.8121 63.56 32.2121 65.28C32.6121 67 32.8121 68.68 32.8121 70.32C32.8121 72.84 32.3721 74.76 31.4921 76.08C30.6121 77.36 29.1721 78 27.1721 78H3.35211ZM63.3587 70.98C63.3587 71.94 63.5987 72.74 64.0787 73.38C64.5987 74.02 65.3187 74.38 66.2387 74.46V76.14C65.5987 76.86 64.5987 77.42 63.2387 77.82C61.9187 78.22 60.5787 78.42 59.2187 78.42C57.8587 78.42 56.6987 78.06 55.7387 77.34C54.7787 76.62 54.1387 75.62 53.8187 74.34C51.8987 77.06 49.1587 78.42 45.5987 78.42C42.7987 78.42 40.6187 77.56 39.0587 75.84C37.4987 74.12 36.7187 71.8 36.7187 68.88V52.38C36.7187 51.7 36.4587 51.22 35.9387 50.94C35.4587 50.66 34.7387 50.52 33.7787 50.52V47.88C34.3787 47.4 35.5187 46.92 37.1987 46.44C38.9187 45.96 40.7387 45.72 42.6587 45.72C43.7787 45.72 44.5987 45.8 45.1187 45.96C45.6387 46.08 45.9987 46.36 46.1987 46.8C46.3987 47.24 46.4987 47.94 46.4987 48.9V69.06C46.4987 70.3 46.6987 71.24 47.0987 71.88C47.5387 72.48 48.2387 72.78 49.1987 72.78C49.9987 72.78 50.7787 72.54 51.5387 72.06C52.3387 71.54 53.0187 70.92 53.5787 70.2V52.38C53.5787 51.14 52.4587 50.52 50.2187 50.52V47.88C50.8587 47.36 52.0187 46.88 53.6987 46.44C55.4187 45.96 57.2987 45.72 59.3387 45.72C60.9787 45.72 62.0587 45.92 62.5787 46.32C63.0987 46.68 63.3587 47.54 63.3587 48.9V70.98ZM92.2946 70.38C92.6146 70.74 92.8746 71.22 93.0746 71.82C93.3146 72.42 93.4346 72.94 93.4346 73.38C93.4346 74.26 92.9746 75.12 92.0546 75.96C91.1346 76.8 89.8946 77.5 88.3346 78.06C86.8146 78.62 85.1546 78.9 83.3546 78.9C80.4346 78.9 77.8546 78.24 75.6146 76.92C73.3746 75.6 71.6346 73.7 70.3946 71.22C69.1546 68.74 68.5346 65.8 68.5346 62.4C68.5346 58.92 69.1946 55.9 70.5146 53.34C71.8746 50.78 73.7346 48.82 76.0946 47.46C78.4946 46.1 81.1746 45.42 84.1346 45.42C87.0946 45.42 89.3946 46.14 91.0346 47.58C92.7146 48.98 93.5546 50.78 93.5546 52.98C93.5546 54.86 93.0746 56.34 92.1146 57.42C91.1546 58.46 89.9146 58.98 88.3946 58.98C87.1546 58.98 86.1146 58.52 85.2746 57.6C84.4346 56.68 84.0146 55.56 84.0146 54.24C84.0146 53.36 84.1746 52.62 84.4946 52.02C84.8146 51.42 85.2546 50.88 85.8146 50.4C85.1746 50.04 84.5946 49.86 84.0746 49.86C82.7146 49.86 81.5146 50.68 80.4746 52.32C79.4346 53.92 78.9146 56.58 78.9146 60.3C78.9146 64.54 79.5346 67.6 80.7746 69.48C82.0146 71.32 83.8346 72.24 86.2346 72.24C87.3546 72.24 88.4546 72.08 89.5346 71.76C90.6546 71.44 91.5746 70.98 92.2946 70.38ZM96.0095 69.54C96.0095 66.86 96.8895 64.74 98.6495 63.18C100.409 61.62 103.009 60.84 106.449 60.84C107.649 60.84 108.869 60.96 110.109 61.2C111.389 61.44 112.429 61.76 113.229 62.16V54.18C113.229 52.58 112.829 51.44 112.029 50.76C111.229 50.04 110.149 49.68 108.789 49.68C107.469 49.68 106.389 50 105.549 50.64C106.309 50.88 106.869 51.3 107.229 51.9C107.629 52.46 107.829 53.1 107.829 53.82C107.829 55.1 107.369 56.14 106.449 56.94C105.529 57.74 104.369 58.14 102.969 58.14C101.449 58.14 100.229 57.7 99.3095 56.82C98.3895 55.94 97.9295 54.8 97.9295 53.4C97.9295 52 98.4095 50.68 99.3695 49.44C100.329 48.2 101.789 47.2 103.749 46.44C105.749 45.68 108.209 45.3 111.129 45.3C115.089 45.3 118.089 46.12 120.129 47.76C122.169 49.36 123.189 51.72 123.189 54.84V70.74C123.189 72.66 124.109 73.82 125.949 74.22V76.14C125.429 76.86 124.569 77.42 123.369 77.82C122.169 78.22 120.949 78.42 119.709 78.42C116.989 78.42 115.069 77.48 113.949 75.6C113.029 76.4 111.909 77.08 110.589 77.64C109.269 78.16 107.769 78.42 106.089 78.42C103.089 78.42 100.649 77.6 98.7695 75.96C96.9295 74.28 96.0095 72.14 96.0095 69.54ZM113.229 66.78C112.789 66.5 112.249 66.26 111.609 66.06C111.009 65.86 110.429 65.76 109.869 65.76C108.749 65.76 107.829 66.12 107.109 66.84C106.389 67.52 106.029 68.52 106.029 69.84C106.029 70.92 106.389 71.82 107.109 72.54C107.829 73.22 108.789 73.56 109.989 73.56C110.589 73.56 111.169 73.48 111.729 73.32C112.329 73.12 112.829 72.88 113.229 72.6V66.78ZM129.914 52.5C129.474 52.34 129.074 52 128.714 51.48C128.354 50.92 128.174 50.34 128.174 49.74C129.774 48.74 131.054 47.46 132.014 45.9C133.014 44.34 133.514 42.78 133.514 41.22C133.514 40.9 133.494 40.64 133.454 40.44C133.334 40.48 133.054 40.5 132.614 40.5C131.094 40.5 129.894 39.98 129.014 38.94C128.174 37.9 127.754 36.64 127.754 35.16C127.754 33.56 128.234 32.26 129.194 31.26C130.154 30.22 131.394 29.7 132.914 29.7C134.754 29.7 136.234 30.4 137.354 31.8C138.474 33.16 139.034 35.2 139.034 37.92C139.034 40.32 138.594 42.54 137.714 44.58C136.874 46.62 135.754 48.34 134.354 49.74C132.954 51.1 131.474 52.02 129.914 52.5ZM155.893 78.6C153.933 78.6 151.973 78.32 150.013 77.76C148.093 77.16 146.513 76.32 145.273 75.24C144.033 74.16 143.413 72.88 143.413 71.4C143.413 70 143.813 68.88 144.613 68.04C145.413 67.16 146.433 66.72 147.673 66.72C148.793 66.72 149.733 67.08 150.493 67.8C151.293 68.52 151.693 69.46 151.693 70.62C151.693 71.14 151.613 71.6 151.453 72C151.333 72.36 151.093 72.76 150.733 73.2C151.053 73.52 151.653 73.78 152.533 73.98C153.413 74.14 154.353 74.22 155.353 74.22C156.713 74.22 157.773 73.98 158.533 73.5C159.333 72.98 159.733 72.32 159.733 71.52C159.733 70.44 159.233 69.52 158.233 68.76C157.233 67.96 155.633 66.98 153.433 65.82C151.193 64.62 149.493 63.64 148.333 62.88C147.173 62.08 146.133 61.02 145.213 59.7C144.333 58.34 143.893 56.68 143.893 54.72C143.893 52 145.013 49.8 147.253 48.12C149.493 46.44 152.593 45.6 156.553 45.6C160.433 45.6 163.313 46.3 165.193 47.7C167.113 49.06 168.073 50.7 168.073 52.62C168.073 53.82 167.673 54.8 166.873 55.56C166.113 56.32 165.173 56.7 164.053 56.7C163.013 56.7 162.113 56.4 161.353 55.8C160.633 55.16 160.273 54.34 160.273 53.34C160.273 52.82 160.353 52.3 160.513 51.78C160.673 51.22 160.893 50.76 161.173 50.4C160.373 49.76 159.173 49.44 157.573 49.44C156.293 49.44 155.293 49.74 154.573 50.34C153.853 50.94 153.493 51.7 153.493 52.62C153.493 53.86 153.993 54.88 154.993 55.68C155.993 56.48 157.593 57.44 159.793 58.56C161.873 59.64 163.513 60.58 164.713 61.38C165.913 62.18 166.953 63.24 167.833 64.56C168.713 65.88 169.153 67.5 169.153 69.42C169.153 72.54 167.873 74.86 165.313 76.38C162.793 77.86 159.653 78.6 155.893 78.6ZM200.296 35.7C206.456 35.7 210.856 36.82 213.496 39.06C216.136 41.3 217.456 44.7 217.456 49.26C217.456 51.94 216.796 54.34 215.476 56.46C214.156 58.54 212.156 60.18 209.476 61.38C206.796 62.58 203.516 63.18 199.636 63.18H197.116V68.46C197.116 70.06 197.296 71.26 197.656 72.06C198.016 72.86 198.636 73.42 199.516 73.74C200.436 74.02 201.816 74.16 203.656 74.16C203.656 74.88 203.536 75.58 203.296 76.26C203.056 76.94 202.736 77.52 202.336 78H184.876C184.436 77.52 184.096 76.94 183.856 76.26C183.616 75.58 183.496 74.88 183.496 74.16C184.856 74.16 185.816 73.94 186.376 73.5C186.976 73.02 187.276 72.24 187.276 71.16V42.96C187.276 41.84 186.976 41.06 186.376 40.62C185.816 40.14 184.856 39.9 183.496 39.9C183.496 38.54 183.936 37.28 184.816 36.12C187.496 36.12 191.136 36.02 195.736 35.82C198.056 35.74 199.576 35.7 200.296 35.7ZM207.016 49.08C207.016 46.52 206.416 44.44 205.216 42.84C204.056 41.24 202.096 40.44 199.336 40.44C198.456 40.44 197.716 40.52 197.116 40.68V58.26C197.476 58.34 197.996 58.38 198.676 58.38C201.996 58.38 204.216 57.5 205.336 55.74C206.456 53.98 207.016 51.76 207.016 49.08ZM233.389 35.58C233.389 37.3 232.849 38.68 231.769 39.72C230.729 40.72 229.329 41.22 227.569 41.22C225.849 41.22 224.469 40.72 223.429 39.72C222.429 38.68 221.929 37.3 221.929 35.58C221.929 33.9 222.449 32.54 223.489 31.5C224.569 30.46 225.969 29.94 227.689 29.94C229.409 29.94 230.789 30.46 231.829 31.5C232.869 32.54 233.389 33.9 233.389 35.58ZM232.249 71.52C232.249 72.68 232.529 73.52 233.089 74.04C233.689 74.52 234.589 74.76 235.789 74.76C235.789 76 235.329 77.08 234.409 78H220.849C219.929 77.08 219.469 76 219.469 74.76C220.669 74.76 221.529 74.52 222.049 74.04C222.609 73.52 222.889 72.66 222.889 71.46V54.06C222.889 52.94 222.609 52.14 222.049 51.66C221.529 51.18 220.489 50.94 218.929 50.94V48.3C219.889 47.7 221.509 47.08 223.789 46.44C226.109 45.76 228.069 45.42 229.669 45.42C230.589 45.42 231.249 45.64 231.649 46.08C232.049 46.48 232.249 47.18 232.249 48.18V71.52ZM252.681 73.92C254.641 73.92 256.181 73.62 257.301 73.02C258.421 72.42 259.261 71.6 259.821 70.56C260.421 69.48 260.941 68.04 261.381 66.24H265.881V68.34C265.881 70.38 265.781 72.2 265.581 73.8C265.381 75.36 264.961 76.76 264.321 78H238.881L237.201 75.72L252.081 53.4L254.961 50.22H249.921C248.041 50.22 246.681 50.74 245.841 51.78C245.001 52.82 244.581 54.54 244.581 56.94H239.781C239.341 55.7 239.061 54.36 238.941 52.92C238.861 51.44 238.801 49.2 238.761 46.2H264.261L266.061 48.66L252.321 70.14L248.721 73.92H252.681ZM283.091 73.92C285.051 73.92 286.591 73.62 287.711 73.02C288.831 72.42 289.671 71.6 290.231 70.56C290.831 69.48 291.351 68.04 291.791 66.24H296.291V68.34C296.291 70.38 296.191 72.2 295.991 73.8C295.791 75.36 295.371 76.76 294.731 78H269.291L267.611 75.72L282.491 53.4L285.371 50.22H280.331C278.451 50.22 277.091 50.74 276.251 51.78C275.411 52.82 274.991 54.54 274.991 56.94H270.191C269.751 55.7 269.471 54.36 269.351 52.92C269.271 51.44 269.211 49.2 269.171 46.2H294.671L296.471 48.66L282.731 70.14L279.131 73.92H283.091ZM316.741 71.88C319.261 71.88 321.601 71.08 323.761 69.48C324.081 69.8 324.361 70.28 324.601 70.92C324.841 71.56 324.961 72.12 324.961 72.6C324.961 73.32 324.481 74.16 323.521 75.12C322.561 76.04 321.221 76.84 319.501 77.52C317.821 78.2 315.921 78.54 313.801 78.54C310.841 78.54 308.241 77.9 306.001 76.62C303.801 75.34 302.101 73.48 300.901 71.04C299.701 68.6 299.101 65.72 299.101 62.4C299.101 59 299.741 56.02 301.021 53.46C302.341 50.9 304.141 48.94 306.421 47.58C308.701 46.18 311.281 45.48 314.161 45.48C317.801 45.48 320.701 46.54 322.861 48.66C325.021 50.78 326.101 53.72 326.101 57.48C326.101 59.24 325.821 60.64 325.261 61.68C324.701 62.68 323.701 63.18 322.261 63.18H309.301C309.541 68.98 312.021 71.88 316.741 71.88ZM313.801 49.62C312.561 49.62 311.521 50.32 310.681 51.72C309.841 53.08 309.381 55.38 309.301 58.62H315.361C316.001 58.62 316.421 58.4 316.621 57.96C316.821 57.52 316.921 56.84 316.921 55.92C316.921 53.56 316.641 51.92 316.081 51C315.521 50.08 314.761 49.62 313.801 49.62ZM349.738 45.42C351.538 45.42 352.858 45.88 353.698 46.8C354.538 47.72 354.958 48.98 354.958 50.58C354.958 52.3 354.498 53.7 353.578 54.78C352.698 55.86 351.498 56.4 349.978 56.4C348.658 56.4 347.578 56.02 346.738 55.26C345.938 54.5 345.538 53.6 345.538 52.56C345.538 51.92 345.598 51.42 345.718 51.06C344.278 51.42 343.058 52.04 342.058 52.92V70.92C342.058 71.92 342.198 72.68 342.478 73.2C342.758 73.72 343.298 74.12 344.098 74.4C344.938 74.64 346.178 74.76 347.818 74.76C347.818 75.48 347.738 76.1 347.578 76.62C347.418 77.1 347.118 77.56 346.678 78H330.658C329.738 77.08 329.278 76 329.278 74.76C330.438 74.76 331.258 74.52 331.738 74.04C332.258 73.52 332.518 72.66 332.518 71.46V54.12C332.518 53.04 332.218 52.28 331.618 51.84C331.058 51.4 330.038 51.18 328.558 51.18V48.48C329.878 47.72 331.618 47.06 333.778 46.5C335.978 45.9 337.678 45.6 338.878 45.6C339.838 45.6 340.518 45.94 340.918 46.62C341.318 47.3 341.518 48.66 341.518 50.7C342.238 49.34 343.378 48.12 344.938 47.04C346.498 45.96 348.098 45.42 349.738 45.42ZM370.03 35.58C370.03 37.3 369.49 38.68 368.41 39.72C367.37 40.72 365.97 41.22 364.21 41.22C362.49 41.22 361.11 40.72 360.07 39.72C359.07 38.68 358.57 37.3 358.57 35.58C358.57 33.9 359.09 32.54 360.13 31.5C361.21 30.46 362.61 29.94 364.33 29.94C366.05 29.94 367.43 30.46 368.47 31.5C369.51 32.54 370.03 33.9 370.03 35.58ZM368.89 71.52C368.89 72.68 369.17 73.52 369.73 74.04C370.33 74.52 371.23 74.76 372.43 74.76C372.43 76 371.97 77.08 371.05 78H357.49C356.57 77.08 356.11 76 356.11 74.76C357.31 74.76 358.17 74.52 358.69 74.04C359.25 73.52 359.53 72.66 359.53 71.46V54.06C359.53 52.94 359.25 52.14 358.69 51.66C358.17 51.18 357.13 50.94 355.57 50.94V48.3C356.53 47.7 358.15 47.08 360.43 46.44C362.75 45.76 364.71 45.42 366.31 45.42C367.23 45.42 367.89 45.64 368.29 46.08C368.69 46.48 368.89 47.18 368.89 48.18V71.52ZM374.681 69.54C374.681 66.86 375.561 64.74 377.321 63.18C379.081 61.62 381.681 60.84 385.121 60.84C386.321 60.84 387.541 60.96 388.781 61.2C390.061 61.44 391.101 61.76 391.901 62.16V54.18C391.901 52.58 391.501 51.44 390.701 50.76C389.901 50.04 388.821 49.68 387.461 49.68C386.141 49.68 385.061 50 384.221 50.64C384.981 50.88 385.541 51.3 385.901 51.9C386.301 52.46 386.501 53.1 386.501 53.82C386.501 55.1 386.041 56.14 385.121 56.94C384.201 57.74 383.041 58.14 381.641 58.14C380.121 58.14 378.901 57.7 377.981 56.82C377.061 55.94 376.601 54.8 376.601 53.4C376.601 52 377.081 50.68 378.041 49.44C379.001 48.2 380.461 47.2 382.421 46.44C384.421 45.68 386.881 45.3 389.801 45.3C393.761 45.3 396.761 46.12 398.801 47.76C400.841 49.36 401.861 51.72 401.861 54.84V70.74C401.861 72.66 402.781 73.82 404.621 74.22V76.14C404.101 76.86 403.241 77.42 402.041 77.82C400.841 78.22 399.621 78.42 398.381 78.42C395.661 78.42 393.741 77.48 392.621 75.6C391.701 76.4 390.581 77.08 389.261 77.64C387.941 78.16 386.441 78.42 384.761 78.42C381.761 78.42 379.321 77.6 377.441 75.96C375.601 74.28 374.681 72.14 374.681 69.54ZM391.901 66.78C391.461 66.5 390.921 66.26 390.281 66.06C389.681 65.86 389.101 65.76 388.541 65.76C387.421 65.76 386.501 66.12 385.781 66.84C385.061 67.52 384.701 68.52 384.701 69.84C384.701 70.92 385.061 71.82 385.781 72.54C386.501 73.22 387.461 73.56 388.661 73.56C389.261 73.56 389.841 73.48 390.401 73.32C391.001 73.12 391.501 72.88 391.901 72.6V66.78Z"
    fill="#181818"
  />
  <g clip-path="url(#clip1_1_6)">
    <rect y="101" width="112" height="2" rx="1" fill="#181818" />
    <path
      d="M130.704 96.832V98.64H127.728V108H125.488V98.64H122.512V96.832H130.704ZM141.602 96.832V108H139.362V103.248H134.578V108H132.338V96.832H134.578V101.424H139.362V96.832H141.602ZM146.047 98.64V101.44H149.807V103.216H146.047V106.176H150.287V108H143.807V96.816H150.287V98.64H146.047ZM162.471 102.272C163.101 102.389 163.618 102.704 164.023 103.216C164.429 103.728 164.631 104.315 164.631 104.976C164.631 105.573 164.482 106.101 164.183 106.56C163.895 107.008 163.474 107.36 162.919 107.616C162.365 107.872 161.709 108 160.951 108H156.135V96.832H160.743C161.501 96.832 162.151 96.9547 162.695 97.2C163.25 97.4453 163.666 97.7867 163.943 98.224C164.231 98.6613 164.375 99.1573 164.375 99.712C164.375 100.363 164.199 100.907 163.847 101.344C163.506 101.781 163.047 102.091 162.471 102.272ZM158.375 101.44H160.423C160.957 101.44 161.367 101.323 161.655 101.088C161.943 100.843 162.087 100.496 162.087 100.048C162.087 99.6 161.943 99.2533 161.655 99.008C161.367 98.7627 160.957 98.64 160.423 98.64H158.375V101.44ZM160.631 106.176C161.175 106.176 161.597 106.048 161.895 105.792C162.205 105.536 162.359 105.173 162.359 104.704C162.359 104.224 162.199 103.851 161.879 103.584C161.559 103.307 161.127 103.168 160.583 103.168H158.375V106.176H160.631ZM168.657 98.64V101.44H172.417V103.216H168.657V106.176H172.897V108H166.417V96.816H172.897V98.64H168.657ZM178.788 108.112C178.009 108.112 177.305 107.979 176.676 107.712C176.057 107.445 175.567 107.061 175.204 106.56C174.841 106.059 174.655 105.467 174.644 104.784H177.044C177.076 105.243 177.236 105.605 177.524 105.872C177.823 106.139 178.228 106.272 178.74 106.272C179.263 106.272 179.673 106.149 179.972 105.904C180.271 105.648 180.42 105.317 180.42 104.912C180.42 104.581 180.319 104.309 180.116 104.096C179.913 103.883 179.657 103.717 179.348 103.6C179.049 103.472 178.633 103.333 178.1 103.184C177.375 102.971 176.783 102.763 176.324 102.56C175.876 102.347 175.487 102.032 175.156 101.616C174.836 101.189 174.676 100.624 174.676 99.92C174.676 99.2587 174.841 98.6827 175.172 98.192C175.503 97.7013 175.967 97.328 176.564 97.072C177.161 96.8053 177.844 96.672 178.612 96.672C179.764 96.672 180.697 96.9547 181.412 97.52C182.137 98.0747 182.537 98.8533 182.612 99.856H180.148C180.127 99.472 179.961 99.1573 179.652 98.912C179.353 98.656 178.953 98.528 178.452 98.528C178.015 98.528 177.663 98.64 177.396 98.864C177.14 99.088 177.012 99.4133 177.012 99.84C177.012 100.139 177.108 100.389 177.3 100.592C177.503 100.784 177.748 100.944 178.036 101.072C178.335 101.189 178.751 101.328 179.284 101.488C180.009 101.701 180.601 101.915 181.06 102.128C181.519 102.341 181.913 102.661 182.244 103.088C182.575 103.515 182.74 104.075 182.74 104.768C182.74 105.365 182.585 105.92 182.276 106.432C181.967 106.944 181.513 107.355 180.916 107.664C180.319 107.963 179.609 108.112 178.788 108.112ZM192.282 96.832V98.64H189.306V108H187.066V98.64H184.09V96.832H192.282ZM205.873 100.288C205.873 100.885 205.729 101.445 205.441 101.968C205.164 102.491 204.721 102.912 204.113 103.232C203.516 103.552 202.758 103.712 201.841 103.712H199.969V108H197.729V96.832H201.841C202.705 96.832 203.441 96.9813 204.049 97.28C204.657 97.5787 205.11 97.9893 205.409 98.512C205.718 99.0347 205.873 99.6267 205.873 100.288ZM201.745 101.904C202.364 101.904 202.822 101.765 203.121 101.488C203.42 101.2 203.569 100.8 203.569 100.288C203.569 99.2 202.961 98.656 201.745 98.656H199.969V101.904H201.745ZM209.703 96.832V108H207.463V96.832H209.703ZM214.205 106.112H219.229V108H211.613V106.272L216.605 98.72H211.613V96.832H219.229V98.56L214.205 106.112ZM223.423 106.112H228.447V108H220.831V106.272L225.823 98.72H220.831V96.832H228.447V98.56L223.423 106.112ZM237.202 105.872H232.754L232.018 108H229.666L233.682 96.816H236.29L240.306 108H237.938L237.202 105.872ZM236.594 104.08L234.978 99.408L233.362 104.08H236.594ZM247.86 98.64V101.44H251.62V103.216H247.86V106.176H252.1V108H245.62V96.816H252.1V98.64H247.86ZM264.167 96.832L260.071 108H257.351L253.255 96.832H255.655L258.727 105.712L261.783 96.832H264.167ZM267.75 98.64V101.44H271.51V103.216H267.75V106.176H271.99V108H265.51V96.816H271.99V98.64H267.75ZM279.786 108L277.322 103.648H276.266V108H274.026V96.832H278.218C279.082 96.832 279.818 96.9867 280.426 97.296C281.034 97.5947 281.487 98.0053 281.786 98.528C282.095 99.04 282.25 99.616 282.25 100.256C282.25 100.992 282.037 101.659 281.61 102.256C281.183 102.843 280.549 103.248 279.706 103.472L282.378 108H279.786ZM276.266 101.968H278.138C278.746 101.968 279.199 101.824 279.498 101.536C279.797 101.237 279.946 100.827 279.946 100.304C279.946 99.792 279.797 99.3973 279.498 99.12C279.199 98.832 278.746 98.688 278.138 98.688H276.266V101.968Z"
      fill="#181818"
    />
    <rect x="294" y="101" width="112" height="2" rx="1" fill="#181818" />
  </g>
  <defs>
    <clipPath id="clip0_1_6">
      <rect width="406" height="24" fill="white" />
    </clipPath>
    <clipPath id="clip1_1_6">
      <rect width="406" height="24" fill="white" transform="translate(0 90)" />
    </clipPath>
  </defs>
</svg>
